# xmcd CD database file
#
# Track frame offsets:
#	150
#	13530
#	28318
#	42658
#	57944
#	73889
#	88088
#	101828
#	114168
#	127495
#	141518
#	154220
#	166368
#	179349
#	192940
#	206284
#	218758
#	233143
#	246748
#	259766
#	273961
#	289426
#	303534
#
# Disc length: 4260 seconds
#
# Revision: 0
# Processed by: cddbd v1.4PL0 Copyright (c) Steve Scherf et al.
# Submitted via: CDex 1.50beta10
#
DISCID=7010a217
DTITLE=Allen Brothers - Volume 3: 1932-34
DYEAR=1900
DGENRE=Country
TTITLE0=Red Hot Rambling Dan 
TTITLE1=When A Man's Got A Woman 
TTITLE2=Rough Neck Blues 
TTITLE3=Slipping Clutch Blues 
TTITLE4=Please Pay In Advance 
TTITLE5=Allen's Lying Blues 
TTITLE6=Midnight Mama 
TTITLE7=Baby When You Coming Back Home 
TTITLE8=Long Gone From Bowling Green 
TTITLE9=Red Pajama Sal 
TTITLE10=New Deal Blues 
TTITLE11=Mercy, Mercy Blues 
TTITLE12=Padlock Key Blues 
TTITLE13=Daddy Park Your Car 
TTITLE14=Salty Dog, Hey Hey Hey 
TTITLE15=Hey Buddy, Won't You Roll Down The Line 
TTITLE16=Allen Brothers' Rag 
TTITLE17=Skippin And Flyin' 
TTITLE18=Prisoner's Dream, The 
TTITLE19=Drunk And Nutty Blues 
TTITLE20=Misbehavin' Mama 
TTITLE21=Midnight Mama 
TTITLE22=Chattanooga Mama 
EXTD=
EXTT0=
EXTT1=
EXTT2=
EXTT3=
EXTT4=
EXTT5=
EXTT6=
EXTT7=
EXTT8=
EXTT9=
EXTT10=
EXTT11=
EXTT12=
EXTT13=
EXTT14=
EXTT15=
EXTT16=
EXTT17=
EXTT18=
EXTT19=
EXTT20=
EXTT21=
EXTT22=
PLAYORDER=
